<?xml version="1.0" encoding="UTF-8" standalone="no"?>
<svg
   xmlns:dc="http://purl.org/dc/elements/1.1/"
   xmlns:cc="http://creativecommons.org/ns#"
   xmlns:rdf="http://www.w3.org/1999/02/22-rdf-syntax-ns#"
   xmlns:svg="http://www.w3.org/2000/svg"
   xmlns="http://www.w3.org/2000/svg"
   xmlns:sodipodi="http://sodipodi.sourceforge.net/DTD/sodipodi-0.dtd"
   xmlns:inkscape="http://www.inkscape.org/namespaces/inkscape"
   version="1.1"
   x="0"
   y="0"
   width="360"
   height="360"
   viewBox="0 0 360 360"
   id="svg34"
   sodipodi:docname="Nuked2.svg"
   inkscape:version="0.92.2 2405546, 2018-03-11"
   inkscape:export-filename="/home/jpc/Documents/Projects/ADLplug/resources/ui/cores/Nuked2.png"
   inkscape:export-xdpi="96"
   inkscape:export-ydpi="96">
  <metadata
     id="metadata40">
    <rdf:RDF>
      <cc:Work
         rdf:about="">
        <dc:format>image/svg+xml</dc:format>
        <dc:type
           rdf:resource="http://purl.org/dc/dcmitype/StillImage" />
        <dc:title></dc:title>
      </cc:Work>
    </rdf:RDF>
  </metadata>
  <defs
     id="defs38" />
  <sodipodi:namedview
     pagecolor="#ffffff"
     bordercolor="#666666"
     borderopacity="1"
     objecttolerance="10"
     gridtolerance="10"
     guidetolerance="10"
     inkscape:pageopacity="0"
     inkscape:pageshadow="2"
     inkscape:window-width="986"
     inkscape:window-height="762"
     id="namedview36"
     showgrid="false"
     fit-margin-top="0"
     fit-margin-left="0"
     fit-margin-right="0"
     fit-margin-bottom="0"
     inkscape:zoom="1.1105882"
     inkscape:cx="173.5877"
     inkscape:cy="214.2531"
     inkscape:window-x="68"
     inkscape:window-y="129"
     inkscape:window-maximized="0"
     inkscape:current-layer="svg34" />
  <g
     id="g3109"
     transform="translate(-44.734,-510)">
    <path
       style="fill:#ffff00"
       inkscape:connector-curvature="0"
       id="circle3852"
       d="m 390.523,690 c 0,91.563 -74.227,165.789 -165.789,165.789 -91.563,0 -165.789,-74.226 -165.789,-165.789 0,-91.563 74.226,-165.789 165.789,-165.789 91.562,0 165.789,74.226 165.789,165.789 z" />
    <path
       style="fill-opacity:0;stroke:#000000;stroke-width:16.57900047"
       inkscape:connector-curvature="0"
       id="circle2840"
       d="m 390.523,690 c 0,91.563 -74.227,165.789 -165.789,165.789 -91.563,0 -165.789,-74.226 -165.789,-165.789 0,-91.563 74.226,-165.789 165.789,-165.789 91.562,0 165.789,74.226 165.789,165.789 z" />
    <g
       id="g2847">
      <path
         style="fill:#ff00c9"
         inkscape:connector-curvature="0"
         id="path2227"
         d="m 203.49,728.634 -49.628,85.949 c 45.173,26.081 96.57,26.081 141.743,0 l -49.628,-85.949 c -0.328,0.19 -0.641,0.403 -0.974,0.584 -1.205,0.655 -2.449,1.252 -3.721,1.79 -1.272,0.538 -2.584,1.021 -3.916,1.435 -1.331,0.414 -2.691,0.762 -4.075,1.045 -1.384,0.284 -2.788,0.493 -4.217,0.638 -1.429,0.145 -2.874,0.23 -4.341,0.23 -1.467,0 -2.912,-0.085 -4.34,-0.23 -1.429,-0.145 -2.834,-0.354 -4.217,-0.638 -1.384,-0.283 -2.744,-0.631 -4.075,-1.045 -1.332,-0.414 -2.644,-0.897 -3.916,-1.435 -1.272,-0.538 -2.516,-1.135 -3.721,-1.79 -0.334,-0.181 -0.646,-0.394 -0.974,-0.584 z" />
      <path
         style="fill:#ff00c9"
         inkscape:connector-curvature="0"
         id="path2189"
         d="M 153.862,569.066 C 108.689,595.147 82.99,639.672 82.99,691.833 h 99.22 c 0,-1.467 0.068,-2.929 0.213,-4.358 0.145,-1.429 0.372,-2.833 0.656,-4.217 0.283,-1.384 0.631,-2.744 1.045,-4.075 0.414,-1.331 0.897,-2.626 1.435,-3.898 0.538,-1.272 1.135,-2.516 1.79,-3.721 0.655,-1.205 1.361,-2.377 2.126,-3.508 0.764,-1.131 1.578,-2.228 2.445,-3.278 0.867,-1.05 1.784,-2.05 2.746,-3.012 0.962,-0.962 1.98,-1.879 3.03,-2.746 1.05,-0.867 2.129,-1.681 3.26,-2.445 0.816,-0.552 1.679,-1.047 2.534,-1.541 z" />
      <path
         style="fill:#ff00c9"
         inkscape:connector-curvature="0"
         id="path2187"
         d="m 295.605,569.066 -49.628,85.968 c 0.855,0.494 1.718,0.989 2.534,1.541 1.131,0.764 2.21,1.578 3.26,2.445 1.05,0.867 2.068,1.784 3.03,2.746 0.962,0.962 1.879,1.962 2.746,3.012 0.867,1.05 1.681,2.147 2.445,3.278 0.764,1.131 1.471,2.303 2.126,3.508 0.655,1.205 1.251,2.449 1.79,3.721 0.538,1.272 1.02,2.567 1.435,3.898 0.414,1.331 0.762,2.691 1.045,4.075 0.284,1.384 0.51,2.788 0.656,4.217 0.145,1.429 0.212,2.891 0.212,4.358 h 99.22 c 0,-52.161 -25.698,-96.686 -70.871,-122.767 z" />
      <path
         style="fill:#ff00c9"
         inkscape:connector-curvature="0"
         id="path1307"
         d="m 253.082,691.826 c 0,15.657 -12.692,28.349 -28.349,28.349 -15.656,0 -28.348,-12.692 -28.348,-28.349 0,-15.656 12.692,-28.348 28.348,-28.348 15.657,0 28.349,12.692 28.349,28.348 z" />
    </g>
  </g>
</svg>
